<svg xmlns="http://www.w3.org/2000/svg" xmlns:v="https://svgstorm.com"
viewBox = "0 0 227 277"
width="227"
height="277">
<g fill="None" fill-opacity="0.0" stroke="#FEFEFE" stroke-opacity="1.00" stroke-width="0.3"><path d="
M 0.00 277.00 
L 92.00 277.00
C 132.13 218.33 175.81 160.39 227.00 112.00
L 227.00 0.00
L 0.00 0.00
L 0.00 277.00
M 199.00 40.00 
C 191.25 50.02 181.90 57.40 172.75 66.75 C 164.72 78.92 149.56 82.13 135.93 79.07 C 118.74 74.07 111.17 89.85 102.00 99.00
C 101.20 122.03 105.53 143.78 104.00 167.00
C 85.82 188.50 65.88 210.90 50.68 235.68 C 54.35 251.84 44.45 273.68 24.98 265.02 C 7.48 259.45 11.67 232.32 30.00 233.00 C 46.29 231.89 49.67 211.44 61.10 203.10 C 69.57 190.81 78.41 181.13 88.25 169.25 C 100.24 155.19 91.19 131.97 94.00 114.00 C 85.96 96.64 101.96 85.51 112.10 75.10 C 122.80 61.35 148.50 77.96 161.70 65.70 C 171.52 54.85 182.10 45.38 192.00 34.00
C 186.07 24.31 193.45 11.01 204.25 8.25 C 215.94 7.68 226.18 17.61 225.00 29.00 C 221.86 40.92 209.67 46.09 199.00 40.00
M 32.00 209.00 
C 38.69 201.60 24.41 201.96 29.00 196.00
C 25.45 198.17 22.08 197.59 21.00 193.00
C 18.08 193.78 18.18 194.94 20.00 197.00
C 16.63 196.46 14.00 198.14 11.00 197.00
C 13.30 199.73 12.25 201.30 10.00 204.00
C -1.53 192.31 23.31 181.83 34.00 189.00
C 42.88 179.24 53.25 167.98 62.30 157.30 C 72.49 142.97 64.43 119.70 66.93 102.92 C 61.43 84.33 74.96 74.19 83.32 60.32 C 91.51 56.10 88.69 47.43 88.93 39.93 C 87.93 21.94 117.38 17.92 122.75 35.25 C 124.67 43.54 121.10 51.90 114.25 56.25 C 107.12 60.35 95.92 52.88 93.10 63.10 C 84.73 75.59 70.29 85.94 76.00 103.00 C 75.34 112.92 76.91 122.26 77.00 132.00 C 75.51 141.02 80.40 153.20 73.70 159.70 C 63.73 170.22 54.72 180.00 45.08 191.08 C 34.55 193.47 40.68 206.63 32.00 209.00
M 25.00 199.00 
C 25.17 201.58 21.36 201.15 20.00 203.00
C 19.91 200.53 22.58 198.46 25.00 199.00 Z"/>
</g>
<g fill="None" fill-opacity="0.0" stroke="#000000" stroke-opacity="1.00" stroke-width="0.3"><path d="
M 199.00 40.00 
C 209.67 46.09 221.86 40.92 225.00 29.00 C 226.18 17.61 215.94 7.68 204.25 8.25 C 193.45 11.01 186.07 24.31 192.00 34.00
C 182.10 45.38 171.52 54.85 161.70 65.70 C 148.50 77.96 122.80 61.35 112.10 75.10 C 101.96 85.51 85.96 96.64 94.00 114.00 C 91.19 131.97 100.24 155.19 88.25 169.25 C 78.41 181.13 69.57 190.81 61.10 203.10 C 49.67 211.44 46.29 231.89 30.00 233.00 C 11.67 232.32 7.48 259.45 24.98 265.02 C 44.45 273.68 54.35 251.84 50.68 235.68 C 65.88 210.90 85.82 188.50 104.00 167.00
C 105.53 143.78 101.20 122.03 102.00 99.00
C 111.17 89.85 118.74 74.07 135.93 79.07 C 149.56 82.13 164.72 78.92 172.75 66.75 C 181.90 57.40 191.25 50.02 199.00 40.00
M 198.00 22.00 
C 202.81 13.66 219.11 18.21 215.22 29.22 C 212.61 40.87 193.97 32.58 198.00 22.00
M 38.00 241.00 
C 41.87 246.04 41.21 251.84 38.00 257.00
C 31.67 259.06 25.42 256.18 23.25 249.75 C 22.36 241.87 31.00 239.55 38.00 241.00 Z"/>
</g>
<g fill="None" fill-opacity="0.0" stroke="#FFFFFF" stroke-opacity="1.00" stroke-width="0.3"><path d="
M 198.00 22.00 
C 193.97 32.58 212.61 40.87 215.22 29.22 C 219.11 18.21 202.81 13.66 198.00 22.00 Z"/>
</g>
<g fill="None" fill-opacity="0.0" stroke="#000000" stroke-opacity="1.00" stroke-width="0.3"><path d="
M 32.00 209.00 
C 40.68 206.63 34.55 193.47 45.08 191.08 C 54.72 180.00 63.73 170.22 73.70 159.70 C 80.40 153.20 75.51 141.02 77.00 132.00 C 76.91 122.26 75.34 112.92 76.00 103.00 C 70.29 85.94 84.73 75.59 93.10 63.10 C 95.92 52.88 107.12 60.35 114.25 56.25 C 121.10 51.90 124.67 43.54 122.75 35.25 C 117.38 17.92 87.93 21.94 88.93 39.93 C 88.69 47.43 91.51 56.10 83.32 60.32 C 74.96 74.19 61.43 84.33 66.93 102.92 C 64.43 119.70 72.49 142.97 62.30 157.30 C 53.25 167.98 42.88 179.24 34.00 189.00
C 23.31 181.83 -1.53 192.31 10.00 204.00
C 12.25 201.30 13.30 199.73 11.00 197.00
C 14.00 198.14 16.63 196.46 20.00 197.00
C 18.18 194.94 18.08 193.78 21.00 193.00
C 22.08 197.59 25.45 198.17 29.00 196.00
C 24.41 201.96 38.69 201.60 32.00 209.00
M 115.00 45.00 
C 110.02 54.40 93.62 48.92 97.78 37.78 C 101.13 26.34 119.38 33.76 115.00 45.00 Z"/>
</g>
<g fill="None" fill-opacity="0.0" stroke="#FFFFFF" stroke-opacity="1.00" stroke-width="0.3"><path d="
M 115.00 45.00 
C 119.38 33.76 101.13 26.34 97.78 37.78 C 93.62 48.92 110.02 54.40 115.00 45.00 Z"/>
</g>
<g fill="None" fill-opacity="0.0" stroke="#000000" stroke-opacity="1.00" stroke-width="0.3"><path d="
M 92.00 277.00 
L 183.00 277.00
C 193.28 265.92 203.53 254.18 215.00 246.00
C 211.22 236.76 216.83 224.57 227.00 225.00
L 227.00 112.00
C 175.81 160.39 132.13 218.33 92.00 277.00 Z"/>
</g>
<g fill="None" fill-opacity="0.0" stroke="#030303" stroke-opacity="1.00" stroke-width="0.3"><path d="
M 25.00 199.00 
C 22.58 198.46 19.91 200.53 20.00 203.00
C 21.36 201.15 25.17 201.58 25.00 199.00 Z"/>
</g>
<g fill="None" fill-opacity="0.0" stroke="#FFFFFF" stroke-opacity="1.00" stroke-width="0.3"><path d="
M 183.00 277.00 
L 185.00 277.00
C 195.94 267.36 205.71 257.07 217.00 248.00
C 219.44 250.21 223.28 251.89 227.00 252.00
L 227.00 248.00
C 215.18 248.20 214.97 227.67 227.00 229.00
L 227.00 225.00
C 216.83 224.57 211.22 236.76 215.00 246.00
C 203.53 254.18 193.28 265.92 183.00 277.00 Z"/>
</g>
<g fill="None" fill-opacity="0.0" stroke="#000000" stroke-opacity="1.00" stroke-width="0.3"><path d="
M 227.00 248.00 
L 227.00 229.00
C 214.97 227.67 215.18 248.20 227.00 248.00 Z"/>
</g>
<g fill="None" fill-opacity="0.0" stroke="#FFFFFF" stroke-opacity="1.00" stroke-width="0.3"><path d="
M 38.00 241.00 
C 31.00 239.55 22.36 241.87 23.25 249.75 C 25.42 256.18 31.67 259.06 38.00 257.00
C 41.21 251.84 41.87 246.04 38.00 241.00 Z"/>
</g>
<g fill="None" fill-opacity="0.0" stroke="#000000" stroke-opacity="1.00" stroke-width="0.3"><path d="
M 185.00 277.00 
L 216.00 277.00
C 216.07 271.97 222.39 269.98 227.00 270.00
L 227.00 252.00
C 223.28 251.89 219.44 250.21 217.00 248.00
C 205.71 257.07 195.94 267.36 185.00 277.00 Z"/>
</g>
<g fill="None" fill-opacity="0.0" stroke="#FFFFFF" stroke-opacity="1.00" stroke-width="0.3"><path d="
M 216.00 277.00 
L 220.00 277.00
C 221.47 274.84 224.51 274.88 227.00 275.00
L 227.00 270.00
C 222.39 269.98 216.07 271.97 216.00 277.00 Z"/>
</g>
<g fill="None" fill-opacity="0.0" stroke="#000000" stroke-opacity="1.00" stroke-width="0.3"><path d="
M 220.00 277.00 
L 227.00 277.00
L 227.00 275.00
C 224.51 274.88 221.47 274.84 220.00 277.00 Z"/>
</g>
<g fill="#FEFEFE" fill-opacity="1.00" stroke="None"><path d="
M 0.00 277.00 
L 92.00 277.00
C 132.13 218.33 175.81 160.39 227.00 112.00
L 227.00 0.00
L 0.00 0.00
L 0.00 277.00 Z"/>
</g>
<g fill="#000000" fill-opacity="1.00" stroke="None"><path d="
M 199.00 40.00 
C 209.67 46.09 221.86 40.92 225.00 29.00 C 226.18 17.61 215.94 7.68 204.25 8.25 C 193.45 11.01 186.07 24.31 192.00 34.00
C 182.10 45.38 171.52 54.85 161.70 65.70 C 148.50 77.96 122.80 61.35 112.10 75.10 C 101.96 85.51 85.96 96.64 94.00 114.00 C 91.19 131.97 100.24 155.19 88.25 169.25 C 78.41 181.13 69.57 190.81 61.10 203.10 C 49.67 211.44 46.29 231.89 30.00 233.00 C 11.67 232.32 7.48 259.45 24.98 265.02 C 44.45 273.68 54.35 251.84 50.68 235.68 C 65.88 210.90 85.82 188.50 104.00 167.00
C 105.53 143.78 101.20 122.03 102.00 99.00
C 111.17 89.85 118.74 74.07 135.93 79.07 C 149.56 82.13 164.72 78.92 172.75 66.75 C 181.90 57.40 191.25 50.02 199.00 40.00 Z"/>
</g>
<g fill="#FFFFFF" fill-opacity="1.00" stroke="None"><path d="
M 198.00 22.00 
C 193.97 32.58 212.61 40.87 215.22 29.22 C 219.11 18.21 202.81 13.66 198.00 22.00 Z"/>
</g>
<g fill="#000000" fill-opacity="1.00" stroke="None"><path d="
M 32.00 209.00 
C 40.68 206.63 34.55 193.47 45.08 191.08 C 54.72 180.00 63.73 170.22 73.70 159.70 C 80.40 153.20 75.51 141.02 77.00 132.00 C 76.91 122.26 75.34 112.92 76.00 103.00 C 70.29 85.94 84.73 75.59 93.10 63.10 C 95.92 52.88 107.12 60.35 114.25 56.25 C 121.10 51.90 124.67 43.54 122.75 35.25 C 117.38 17.92 87.93 21.94 88.93 39.93 C 88.69 47.43 91.51 56.10 83.32 60.32 C 74.96 74.19 61.43 84.33 66.93 102.92 C 64.43 119.70 72.49 142.97 62.30 157.30 C 53.25 167.98 42.88 179.24 34.00 189.00
C 23.31 181.83 -1.53 192.31 10.00 204.00
C 12.25 201.30 13.30 199.73 11.00 197.00
C 14.00 198.14 16.63 196.46 20.00 197.00
C 18.18 194.94 18.08 193.78 21.00 193.00
C 22.08 197.59 25.45 198.17 29.00 196.00
C 24.41 201.96 38.69 201.60 32.00 209.00 Z"/>
</g>
<g fill="#FFFFFF" fill-opacity="1.00" stroke="None"><path d="
M 115.00 45.00 
C 119.38 33.76 101.13 26.34 97.78 37.78 C 93.62 48.92 110.02 54.40 115.00 45.00 Z"/>
</g>
<g fill="#000000" fill-opacity="1.00" stroke="None"><path d="
M 92.00 277.00 
L 183.00 277.00
C 193.28 265.92 203.53 254.18 215.00 246.00
C 211.22 236.76 216.83 224.57 227.00 225.00
L 227.00 112.00
C 175.81 160.39 132.13 218.33 92.00 277.00 Z"/>
</g>
<g fill="#030303" fill-opacity="1.00" stroke="None"><path d="
M 25.00 199.00 
C 22.58 198.46 19.91 200.53 20.00 203.00
C 21.36 201.15 25.17 201.58 25.00 199.00 Z"/>
</g>
<g fill="#FFFFFF" fill-opacity="1.00" stroke="None"><path d="
M 183.00 277.00 
L 185.00 277.00
C 195.94 267.36 205.71 257.07 217.00 248.00
C 219.44 250.21 223.28 251.89 227.00 252.00
L 227.00 248.00
C 215.18 248.20 214.97 227.67 227.00 229.00
L 227.00 225.00
C 216.83 224.57 211.22 236.76 215.00 246.00
C 203.53 254.18 193.28 265.92 183.00 277.00 Z"/>
</g>
<g fill="#000000" fill-opacity="1.00" stroke="None"><path d="
M 227.00 248.00 
L 227.00 229.00
C 214.97 227.67 215.18 248.20 227.00 248.00 Z"/>
</g>
<g fill="#FFFFFF" fill-opacity="1.00" stroke="None"><path d="
M 38.00 241.00 
C 31.00 239.55 22.36 241.87 23.25 249.75 C 25.42 256.18 31.67 259.06 38.00 257.00
C 41.21 251.84 41.87 246.04 38.00 241.00 Z"/>
</g>
<g fill="#000000" fill-opacity="1.00" stroke="None"><path d="
M 185.00 277.00 
L 216.00 277.00
C 216.07 271.97 222.39 269.98 227.00 270.00
L 227.00 252.00
C 223.28 251.89 219.44 250.21 217.00 248.00
C 205.71 257.07 195.94 267.36 185.00 277.00 Z"/>
</g>
<g fill="#FFFFFF" fill-opacity="1.00" stroke="None"><path d="
M 216.00 277.00 
L 220.00 277.00
C 221.47 274.84 224.51 274.88 227.00 275.00
L 227.00 270.00
C 222.39 269.98 216.07 271.97 216.00 277.00 Z"/>
</g>
<g fill="#000000" fill-opacity="1.00" stroke="None"><path d="
M 220.00 277.00 
L 227.00 277.00
L 227.00 275.00
C 224.51 274.88 221.47 274.84 220.00 277.00 Z"/>
</g>
</svg>